Coordinates
version=1
nRows=26
nColumns=24
inDegrees=yes

Units are S.I. units (second, meters, Newtons, ...)
Angles are in degrees.

endheader
time	pelvis_tilt	pelvis_list	pelvis_rotation	pelvis_tx	pelvis_ty	pelvis_tz	hip_flexion_r	hip_adduction_r	hip_rotation_r	knee_angle_r	ankle_angle_r	subtalar_angle_r	mtp_angle_r	hip_flexion_l	hip_adduction_l	hip_rotation_l	knee_angle_l	ankle_angle_l	subtalar_angle_l	mtp_angle_l	lumbar_extension	lumbar_bending	lumbar_rotation
      2.73000000	     24.02432050	     -0.79088726	     -2.79151913	     -0.53193242	      0.95061895	     -0.01045831	    -46.37136718	      1.54742005	    -10.04529005	     -1.68207669	     10.72406145	     16.41329710	      0.00000000	     -6.58488554	      3.43745234	    -23.80076708	      4.91759691	     -1.39607844	     18.41337355	     34.64567467	    -33.70991211	      0.32372336	      2.81540093
      2.73500000	     24.05204096	     -0.65658711	     -2.98352128	     -0.52524164	      0.95012293	     -0.01029401	    -46.60126675	      1.23247748	     -9.86088092	     -2.07941117	     10.50761838	     16.32965615	      0.00000000	     -6.62067541	      3.56790485	    -23.70722989	      4.41837291	     -1.88465613	     17.62896575	     34.60029897	    -33.68271358	      0.03180671	      2.77727214
      2.74000000	     24.04127669	     -0.50962970	     -3.15277009	     -0.51855201	      0.94964808	     -0.01016086	    -46.75867376	      0.92357142	     -9.68483360	     -2.52865907	     10.25523189	     16.19585940	      0.00000000	     -6.60879493	      3.69821673	    -23.50977626	      3.85938247	     -2.45164663	     16.61126482	     34.63262042	    -33.61585486	     -0.26367992	      2.70725201
      2.74500000	     24.03040647	     -0.34363985	     -3.31551763	     -0.51185043	      0.94923536	     -0.01005505	    -46.88566681	      0.60100094	     -9.51907103	     -3.02831966	      9.97210289	     16.03809643	      0.00000000	     -6.59583878	      3.84435900	    -23.26958327	      3.25792628	     -3.08395938	     15.47421714	     34.74558025	    -33.54843811	     -0.57479318	      2.61100600
      2.75000000	     24.00733996	     -0.15540571	     -3.47142393	     -0.50512477	      0.94888240	     -0.00997878	    -46.97276209	      0.26437922	     -9.37604254	     -3.56829751	      9.64912632	     15.86557472	      0.00000000	     -6.55831642	      4.00661316	    -23.00712383	      2.59753740	     -3.75716690	     14.27545452	     34.91495421	    -33.46463021	     -0.90404593	      2.51651053
      2.75500000	     23.97413720	      0.04760350	     -3.61973903	     -0.49839918	      0.94859945	     -0.00993050	    -47.00844514	     -0.08145118	     -9.23796892	     -4.17601191	      9.27560056	     15.67260241	      0.00000000	     -6.50690525	      4.18098972	    -22.70936362	      1.90455408	     -4.44603573	     13.01740852	     35.09954148	    -33.37246109	     -1.24456909	      2.39904605
      2.76000000	     23.84545693	      0.24222771	     -3.71181844	     -0.49170386	      0.94828884	     -0.00999197	    -46.87293194	     -0.38329060	     -9.13690387	     -4.91612015	      9.00416538	     15.41962854	      0.00000000	     -6.32346890	      4.32384261	    -22.29791379	      1.14435554	     -5.20291530	     11.58564566	     36.31696872	    -33.18485690	     -1.54089571	      2.24416036
      2.76500000	     23.87420174	      0.50783711	     -3.89034254	     -0.48489524	      0.94824198	     -0.00993795	    -46.92995904	     -0.80483168	     -9.00637897	     -5.57510248	      8.39543655	     15.22136742	      0.00000000	     -6.34916657	      4.57404946	    -22.06018770	      0.41698100	     -5.83139226	     10.42943079	     36.29100841	    -33.14693273	     -1.96299160	      2.12191348
      2.77000000	     23.79747988	      0.75717300	     -3.98976584	     -0.47815459	      0.94815145	     -0.01001870	    -46.79528535	     -1.15899396	     -8.91987021	     -6.38317869	      7.86047628	     14.96778002	      0.00000000	     -6.22849723	      4.78041516	    -21.65896868	     -0.38868159	     -6.35617751	      9.19324283	     36.27198014	    -33.01072603	     -2.32191729	      1.95392542
      2.77500000	     23.71491448	      1.02060459	     -4.08334254	     -0.47140644	      0.94814506	     -0.01012209	    -46.60607991	     -1.52312864	     -8.84180478	     -7.27012491	      7.26607401	     14.67835541	      0.00000000	     -6.09832804	      4.99996035	    -21.26327819	     -1.21934566	     -6.79198059	      8.03840434	     36.22948170	    -32.86825045	     -2.69207688	      1.77652726
      2.78000000	     23.63164449	      1.29043619	     -4.16776561	     -0.46465886	      0.94821197	     -0.01026122	    -46.36574725	     -1.89031882	     -8.77173860	     -8.23852094	      6.60733579	     14.36490747	      0.00000000	     -5.96371633	      5.22458447	    -20.87231534	     -2.07702904	     -7.11183394	      6.98402843	     36.14119577	    -32.72773493	     -3.06251511	      1.59971373
      2.78500000	     23.54187580	      1.56987516	     -4.23687790	     -0.45791440	      0.94834805	     -0.01043838	    -46.06395135	     -2.25883157	     -8.71777290	     -9.29813625	      5.87843195	     14.01866027	      0.00000000	     -5.82405657	      5.45950053	    -20.47019702	     -2.94684961	     -7.30786180	      6.01077632	     35.98885230	    -32.58260047	     -3.43402419	      1.41435895
      2.79000000	     23.44616715	      1.84650084	     -4.29468469	     -0.45117885	      0.94855216	     -0.01064225	    -45.69727310	     -2.62229298	     -8.67084567	    -10.45175071	      5.07092572	     13.63573129	      0.00000000	     -5.68778524	      5.69343138	    -20.05425842	     -3.81386850	     -7.37486709	      5.11525736	     35.75190900	    -32.43295812	     -3.79722904	      1.23070685
      2.79500000	     23.34628939	      2.12786638	     -4.34172524	     -0.44446154	      0.94882242	     -0.01087653	    -45.26780467	     -2.98776764	     -8.63280886	    -11.69629251	      4.17628355	     13.22173725	      0.00000000	     -5.55430095	      5.93493137	    -19.65188395	     -4.67868721	     -7.33074588	      4.34730199	     35.42545550	    -32.28520309	     -4.15867132	      1.04813062
      2.80000000	     23.24064929	      2.40122858	     -4.38097595	     -0.43775357	      0.94915014	     -0.01115776	    -44.77705614	     -3.34789646	     -8.57105771	    -13.02469384	      3.21334063	     12.71719354	      0.00000000	     -5.43458783	      6.17798920	    -19.21658993	     -5.52295054	     -7.08545968	      3.62675615	     34.83561490	    -32.13280803	     -4.50353931	      0.88057100
      2.80500000	     23.13088175	      2.68142128	     -4.45300476	     -0.43107295	      0.94954429	     -0.01138079	    -44.19983036	     -3.74141826	     -8.48646883	    -14.48686373	      2.28112419	     12.00840256	      0.00000000	     -5.33389939	      6.43390883	    -18.86858212	     -6.33294436	     -6.72721691	      3.20516304	     32.98761881	    -31.97784700	     -4.87368779	      0.74492580
      2.81000000	     23.01928588	      2.96809696	     -4.50011360	     -0.42432576	      0.94997460	     -0.01162548	    -43.57970533	     -4.13877221	     -8.49746522	    -15.99926376	      1.00575591	     11.74392885	      0.00000000	     -5.23851480	      6.68594176	    -18.60683845	     -7.14398726	     -6.35366056	      2.98951405	     32.71198535	    -31.81350986	     -5.23990701	      0.57677753
      2.81500000	     22.92457273	      3.24004420	     -4.57431184	     -0.41768014	      0.95047190	     -0.01188741	    -42.90791614	     -4.54209735	     -8.39218820	    -17.60828472	     -0.13535657	     10.86089907	      0.00000000	     -5.21003459	      6.95551347	    -18.27568526	     -7.86297886	     -5.72689587	      2.74065735	     30.48459170	    -31.67798227	     -5.59812196	      0.47186513
      2.82000000	     22.82819752	      3.53624075	     -4.65415878	     -0.41096516	      0.95098669	     -0.01212829	    -42.17661975	     -4.99521255	     -8.40664088	    -19.29716774	     -1.56074747	     10.64712379	      0.00000000	     -5.20419095	      7.24477702	    -18.08355243	     -8.52793477	     -5.27511669	      2.68036087	     30.24940831	    -31.53073059	     -5.98454598	      0.34629395
      2.82500000	     22.73251494	      3.80463527	     -4.74004244	     -0.40431949	      0.95154608	     -0.01234665	    -41.39463525	     -5.42139602	     -8.31424318	    -21.03091921	     -2.94763077	      9.89777134	      0.00000000	     -5.21715910	      7.50796994	    -17.89192862	     -9.19988668	     -4.31952862	      2.97550417	     27.25652206	    -31.38986050	     -6.34663930	      0.25452624
      2.83000000	     22.66413708	      4.10318873	     -4.87157626	     -0.39766546	      0.95214934	     -0.01258999	    -40.58193083	     -5.93168392	     -8.26363895	    -22.83171562	     -4.49786207	      9.53320846	      0.00000000	     -5.35566599	      7.85328123	    -17.68769636	     -9.61037047	     -3.89622721	      2.77566466	     27.06738045	    -31.27060961	     -6.75158339	      0.20129891
      2.83500000	     22.59836487	      4.38353915	     -4.99472561	     -0.39107514	      0.95278685	     -0.01281426	    -39.72539403	     -6.41955655	     -8.18246496	    -24.66710773	     -6.09476794	      8.89102366	      0.00000000	     -5.49626263	      8.17424805	    -17.54045822	    -10.03557225	     -3.36340692	      2.67556943	     26.55059014	    -31.16109966	     -7.13603132	      0.13902059
      2.84000000	     22.50666009	      4.63558192	     -5.19029290	     -0.38451489	      0.95341214	     -0.01290969	    -38.76653681	     -6.92610474	     -7.97449367	    -26.57664116	     -7.55436510	      8.17137902	      0.00000000	     -5.65587960	      8.46994990	    -17.50768367	    -10.38587348	     -2.49675270	      3.11573552	     23.83403176	    -31.01534947	     -7.52730301	      0.18363852
      2.84500000	     22.44599321	      4.94636635	     -5.35070815	     -0.37793900	      0.95406620	     -0.01313008	    -37.83198504	     -7.48679044	     -7.89673938	    -28.46114398	     -9.17674520	      7.77062891	      0.00000000	     -5.91777172	      8.86597646	    -17.35365925	    -10.54299004	     -2.08144272	      3.05986976	     23.68860749	    -30.90098717	     -7.95284382	      0.14433051
      2.85000000	     22.39985817	      5.21993508	     -5.53737654	     -0.37144401	      0.95473558	     -0.01329165	    -36.86823481	     -8.02463864	     -7.73652540	    -30.35969038	    -10.75710209	      7.15738883	      0.00000000	     -6.20386338	      9.22693065	    -17.28369569	    -10.68441377	     -1.59731077	      3.04771670	     23.33792226	    -30.80651265	     -8.35244995	      0.15364057
      2.85500000	     22.35172317	      5.48549376	     -5.75269850	     -0.36496906	      0.95542471	     -0.01338536	    -35.86682872	     -8.56176591	     -7.50963234	    -32.25823518	    -12.18064419	      6.30200214	      0.00000000	     -6.54483250	      9.59327869	    -17.22909899	    -10.70446720	     -1.06225479	      3.25732508	     22.20425626	    -30.70398185	     -8.75942866	      0.19326898
